# xmcd CD database file
#
# Track frame offsets:
#	150
#	11254
#	22836
#	34307
#	40153
#	49617
#	65503
#	75657
#	97064
#	117155
#	130463
#	142305
#	154715
#	168031
#	183339
#	193001
#	206839
#	225883
#	237433
#	254309
#
# Disc length: 3625 seconds
#
# Revision: 1
# Processed by: cddbd v1.5.2PL0 Copyright (c) Steve Scherf et al.
# Submitted via: CDex 1.51
#
DISCID=090e2714
DTITLE=Marc Laferrière - '' Indicatifs T.V., Radios and Tournées ''
DYEAR=2005
DGENRE=Jazz
TTITLE0=Jazzap   (1974 - Indicatif sur France-Inter)
TTITLE1=Boeuf aux carottes   (1967 - Indicatif de début de concert)
TTITLE2=Ballad with Annick   (1969 - Indicatif sur France-Inter)
TTITLE3=M'sieur Mour   (1980 - Indicatif sur TF1)
TTITLE4=Tavern Blues   (1975)
TTITLE5=En Tournée   (1975 - Tournée Europe N°1)
TTITLE6=Jif   (1975 - Indicatf sur TF1 spécial claquettes)
TTITLE7=Nénuphar   (1968 - Le slow des discothèques)
TTITLE8=Pilou Pilou   (1980)
TTITLE9=C'est si bon chez Serge   (1950 - Indicatif sur TF1)
TTITLE10=Plein Jazz   (1980 - Indicatif sur Radio Monte-Carlo)
TTITLE11=Prélude en bleu   (1979 - Le slow des discothèques)
TTITLE12=Mon pote Boulou   (1979)
TTITLE13=Goldwing Ramble   (1982 - Indicatif Transatlantique S.B.)
TTITLE14=Honda   (1982 - Tournée Radio Monte-Carlo)
TTITLE15=Au 101   (1980 - Indicatif sur TF1)
TTITLE16=R.D.C. Charleston   (1981 - Indicatif Radio Rives de Corbière)
TTITLE17=The Pélican   (1992 - Indicatif des Bières Pelforth)
TTITLE18=April in Berry   (2000)
TTITLE19=Showboat Medlley   (1962)
EXTD=YEAR: 2005
EXTT0=
EXTT1=
EXTT2=
EXTT3=
EXTT4=
EXTT5=
EXTT6=
EXTT7=
EXTT8=
EXTT9=
EXTT10=
EXTT11=
EXTT12=
EXTT13=
EXTT14=
EXTT15=
EXTT16=
EXTT17=
EXTT18=
EXTT19=
PLAYORDER=
